<svg xmlns="http://www.w3.org/2000/svg" style="display:none;">
    <symbol id="icon-export-bahan" viewBox="0 0 641 481">
        <path d="M624.013 416.131H16.0132C7.21317 416.131 0.0131704 423.331 0.0131704 432.131V464.131C0.0131704 472.931 7.21317 480.131 16.0132 480.131H624.013C632.813 480.131 640.013 472.931 640.013 464.131V432.131C640.013 423.331 632.813 416.131 624.013 416.131ZM80.6132 309.431C86.9132 316.231 95.7132 320.131 104.913 320.131L235.413 319.931C245.7 319.918 255.84 317.486 265.013 312.831L556.013 165.131C582.713 151.531 606.713 132.231 623.013 106.831C641.313 78.3313 643.313 57.7314 636.113 43.1314C628.913 28.5314 611.413 17.8314 577.813 15.6314C547.913 13.7314 518.313 21.5314 491.513 35.1314L393.013 85.1313L174.313 3.03135C171.683 1.26161 168.627 0.226535 165.463 0.0331496C162.298 -0.160236 159.14 0.495079 156.313 1.93135L90.6132 35.4314C79.9132 40.8314 77.3132 55.1314 85.4132 63.9314L241.613 162.031L138.413 214.431L66.0132 177.931C63.5183 176.666 60.7604 176.007 57.9632 176.007C55.1659 176.007 52.408 176.666 49.9132 177.931L9.91317 198.331C-0.48683 203.631 -3.28683 217.431 4.31317 226.431L80.5132 309.431H80.6132Z" fill="currentColor"/>
        <path d="M624.013 416.131H16.0132C7.21317 416.131 0.0131704 423.331 0.0131704 432.131V464.131C0.0131704 472.931 7.21317 480.131 16.0132 480.131H624.013C632.813 480.131 640.013 472.931 640.013 464.131V432.131C640.013 423.331 632.813 416.131 624.013 416.131ZM80.6132 309.431C86.9132 316.231 95.7132 320.131 104.913 320.131L235.413 319.931C245.7 319.918 255.84 317.486 265.013 312.831L556.013 165.131C582.713 151.531 606.713 132.231 623.013 106.831C641.313 78.3313 643.313 57.7314 636.113 43.1314C628.913 28.5314 611.413 17.8314 577.813 15.6314C547.913 13.7314 518.313 21.5314 491.513 35.1314L393.013 85.1313L174.313 3.03135C171.683 1.26161 168.627 0.226535 165.463 0.0331496C162.298 -0.160236 159.14 0.495079 156.313 1.93135L90.6132 35.4314C79.9132 40.8314 77.3132 55.1314 85.4132 63.9314L241.613 162.031L138.413 214.431L66.0132 177.931C63.5183 176.666 60.7604 176.007 57.9632 176.007C55.1659 176.007 52.408 176.666 49.9132 177.931L9.91317 198.331C-0.48683 203.631 -3.28683 217.431 4.31317 226.431L80.5132 309.431H80.6132Z" fill="currentColor"/>
        <path d="M496.896 237.388L403.034 272.732C394.596 275.904 389 284.061 389 293.123V395.124C389 403.371 393.648 410.893 400.958 414.563L494.82 461.689C500.912 464.77 508.088 464.77 514.18 461.689L608.042 414.563C615.397 410.893 620 403.325 620 395.124V293.123C620 284.061 614.404 275.949 605.966 272.778L512.104 237.433C507.23 235.53 501.815 235.53 496.896 237.388ZM504.523 265.527L591.164 298.153V298.651L504.523 333.996L417.881 298.651V298.153L504.523 265.527ZM518.963 426.843V359.371L591.164 329.918V390.592L518.963 426.843Z" fill="currentColor"/>
    </symbol>
    <symbol id="icon-export-barang" viewBox="0 0 640 480">
        <g clip-path="url(#clip0_1208_62)">
            <path d="M624 416H16.0005C7.20047 416 0.000475067 423.2 0.000475067 432V464C0.000475067 472.8 7.20047 480 16.0005 480H624C632.8 480 640 472.8 640 464V432C640 423.2 632.8 416 624 416ZM80.6005 309.3C86.9005 316.1 95.7005 320 104.9 320L235.4 319.8C245.687 319.787 255.827 317.355 265 312.7L556 165C582.7 151.4 606.7 132.1 623 106.7C641.3 78.2 643.3 57.6 636.1 43C628.9 28.4 611.4 17.7 577.8 15.5C547.9 13.6 518.3 21.4 491.5 35L393 85L174.3 2.90001C171.67 1.13026 168.615 0.0951877 165.45 -0.098198C162.286 -0.291584 159.127 0.363731 156.3 1.8L90.6005 35.3C79.9005 40.7 77.3005 55 85.4005 63.8L241.6 161.9L138.4 214.3L66.0005 177.8C63.5056 176.535 60.7477 175.876 57.9505 175.876C55.1532 175.876 52.3953 176.535 49.9005 177.8L9.90047 198.2C-0.499525 203.5 -3.29952 217.3 4.30048 226.3L80.5005 309.3H80.6005Z" fill="currentColor"/>
            <g clip-path="url(#clip1_1208_62)">
                <path d="M552.94 352C546.075 352 539.615 348.379 536.121 342.585L510 299.695L483.918 342.585C480.384 348.419 473.925 352.04 467.059 352.04C465.231 352.04 463.403 351.799 461.656 351.276L406 335.504V407.121C406 413.036 410.062 418.186 415.831 419.594L503.662 441.361C507.806 442.366 512.153 442.366 516.256 441.361L604.168 419.594C609.937 418.145 614 412.995 614 407.121V335.504L558.343 351.236C556.596 351.759 554.768 352 552.94 352ZM639.309 306.857L618.387 265.496C617.128 263.002 614.406 261.553 611.603 261.915L510 274.75L547.253 335.946C548.796 338.481 551.884 339.688 554.768 338.884L635.165 316.151C639.187 314.984 641.137 310.559 639.309 306.857ZM401.612 265.496L380.69 306.857C378.821 310.559 380.812 314.984 384.793 316.111L465.19 338.843C468.075 339.648 471.162 338.441 472.706 335.906L510 274.75L408.356 261.915C405.553 261.593 402.871 263.002 401.612 265.496Z" fill="currentColor"/>
            </g>
        </g>
        <defs>
            <clipPath id="clip0_1208_62">
                <rect width="640" height="480" fill="currentColor"/>
            </clipPath>
            <clipPath id="clip1_1208_62">
                <rect width="260" height="206" fill="currentColor" transform="translate(380 249)"/>
            </clipPath>
        </defs>
    </symbol>
    <symbol id="icon-export-waste" viewBox="0 0 641 481">
        <path d="M624.013 416.131H16.0132C7.21317 416.131 0.0131704 423.331 0.0131704 432.131V464.131C0.0131704 472.931 7.21317 480.131 16.0132 480.131H624.013C632.813 480.131 640.013 472.931 640.013 464.131V432.131C640.013 423.331 632.813 416.131 624.013 416.131ZM80.6132 309.431C86.9132 316.231 95.7132 320.131 104.913 320.131L235.413 319.931C245.7 319.918 255.84 317.486 265.013 312.831L556.013 165.131C582.713 151.531 606.713 132.231 623.013 106.831C641.313 78.3313 643.313 57.7314 636.113 43.1314C628.913 28.5314 611.413 17.8314 577.813 15.6314C547.913 13.7314 518.313 21.5314 491.513 35.1314L393.013 85.1313L174.313 3.03135C171.683 1.26161 168.627 0.226535 165.463 0.0331496C162.298 -0.160236 159.14 0.495079 156.313 1.93135L90.6132 35.4314C79.9132 40.8314 77.3132 55.1314 85.4132 63.9314L241.613 162.031L138.413 214.431L66.0132 177.931C63.5183 176.666 60.7604 176.007 57.9632 176.007C55.1659 176.007 52.408 176.666 49.9132 177.931L9.91317 198.331C-0.48683 203.631 -3.28683 217.431 4.31317 226.431L80.5132 309.431H80.6132Z" fill="currentColor"/>
        <path d="M633.583 291.143C637.754 291.143 640.802 287.227 639.799 283.192L630.174 244.835C629.453 241.998 626.886 240 623.958 240H584.295L594.562 291.143H633.583ZM518.083 240H477.779L467.512 291.143H518.083V240ZM571.221 240H530.917V291.143H581.488L571.221 240ZM415.417 291.143H454.438L464.705 240H425.042C422.114 240 419.547 241.998 418.826 244.835L409.201 283.192C408.198 287.227 411.246 291.143 415.417 291.143ZM633.583 316.714H625.562L627.167 303.929H421.833L423.437 316.714H415.417C411.887 316.714 409 319.591 409 323.107V335.893C409 339.409 411.887 342.286 415.417 342.286H426.646L434.667 406.214V412.607C434.667 416.123 437.554 419 441.083 419H453.917C457.446 419 460.333 416.123 460.333 412.607V406.214H588.667V412.607C588.667 416.123 591.554 419 595.083 419H607.917C611.446 419 614.333 416.123 614.333 412.607V406.214L622.354 342.286H633.583C637.112 342.286 640 339.409 640 335.893V323.107C640 319.591 637.112 316.714 633.583 316.714Z" fill="currentColor"/>
    </symbol>
    <symbol id="icon-import-bahan" viewBox="0 0 640 512">
        <g clip-path="url(#clip0_1208_88)">
            <path d="M624 447.988H16C7.2 447.988 0 455.188 0 463.988V495.988C0 504.788 7.2 511.988 16 511.988H624C632.8 511.988 640 504.788 640 495.988V463.988C640 455.188 632.8 447.988 624 447.988ZM44.8 205.688L133.5 285.688C140.793 292.256 149.528 297.018 159 299.588L446.6 377.988C473.1 385.188 501.2 386.688 527.6 379.388C557.3 371.088 571 358.188 574.9 343.688C578.7 329.188 573.2 310.988 551.5 288.688C532.2 268.888 507.1 255.888 480.7 248.688L383.2 222.088L282.8 30.188C281.3 24.388 276.8 19.788 271.1 18.288L206.1 0.587989C195.5 -2.31201 185.2 5.88799 185.4 16.988L233.3 181.188L131.1 153.388L103.5 85.488C101.6 80.588 97.5 76.888 92.5 75.588L52.7 64.788C42.4 61.988 32.2 69.788 32 80.688L32.2 182.488C32.4 191.388 38.2 199.788 44.8 205.788V205.688Z" fill="currentColor"/>
            <path d="M505.495 21.3695L412.852 56.2489C404.523 59.3791 399 67.4282 399 76.3716V177.03C399 185.168 403.588 192.591 410.803 196.214L503.446 242.719C509.459 245.76 516.541 245.76 522.554 242.719L615.197 196.214C622.457 192.591 627 185.124 627 177.03V76.3716C627 67.4282 621.477 59.4238 613.148 56.2936L520.505 21.4142C515.695 19.5361 510.35 19.5361 505.495 21.3695ZM513.022 49.1389L598.539 81.3352V81.8271L513.022 116.706L427.506 81.8271V81.3352L513.022 49.1389ZM527.275 208.332V141.748L598.539 112.682V172.558L527.275 208.332Z" fill="currentColor"/>
        </g>
        <defs>
            <clipPath id="clip0_1208_88">
            <rect width="640" height="512" fill="currentColor"/>
            </clipPath>
        </defs>
    </symbol>
    <symbol id="icon-import-barang" viewBox="0 0 640 512">
        <g clip-path="url(#clip0_1208_64)">
            <path d="M624 447.988H16C7.2 447.988 0 455.188 0 463.988V495.988C0 504.788 7.2 511.988 16 511.988H624C632.8 511.988 640 504.788 640 495.988V463.988C640 455.188 632.8 447.988 624 447.988ZM44.8 205.688L133.5 285.688C140.793 292.256 149.528 297.018 159 299.588L446.6 377.988C473.1 385.188 501.2 386.688 527.6 379.388C557.3 371.088 571 358.188 574.9 343.688C578.7 329.188 573.2 310.988 551.5 288.688C532.2 268.888 507.1 255.888 480.7 248.688L383.2 222.088L282.8 30.188C281.3 24.388 276.8 19.788 271.1 18.288L206.1 0.587989C195.5 -2.31201 185.2 5.88799 185.4 16.988L233.3 181.188L131.1 153.388L103.5 85.488C101.6 80.588 97.5 76.888 92.5 75.588L52.7 64.788C42.4 61.988 32.2 69.788 32 80.688L32.2 182.488C32.4 191.388 38.2 199.788 44.8 205.788V205.688Z" fill="currentColor"/>
            <g clip-path="url(#clip1_1208_64)">
            <path d="M552.94 120C546.075 120 539.615 116.344 536.121 110.494L510 67.1875L483.918 110.494C480.384 116.384 473.925 120.041 467.059 120.041C465.231 120.041 463.403 119.797 461.656 119.269L406 103.344V175.656C406 181.628 410.062 186.828 415.831 188.25L503.662 210.228C507.806 211.244 512.153 211.244 516.256 210.228L604.168 188.25C609.937 186.787 614 181.587 614 175.656V103.344L558.343 119.228C556.596 119.756 554.768 120 552.94 120ZM639.309 74.4188L618.387 32.6563C617.128 30.1375 614.406 28.675 611.603 29.0406L510 42L547.253 103.791C548.796 106.35 551.884 107.569 554.768 106.756L635.165 83.8031C639.187 82.625 641.137 78.1562 639.309 74.4188ZM401.612 32.6563L380.69 74.4188C378.821 78.1562 380.812 82.625 384.793 83.7625L465.19 106.716C468.075 107.528 471.162 106.309 472.706 103.75L510 42L408.356 29.0406C405.553 28.7156 402.871 30.1375 401.612 32.6563Z" fill="currentColor"/>
            </g>
        </g>
        <defs>
            <clipPath id="clip0_1208_64">
            <rect width="640" height="512" fill="currentColor"/>
            </clipPath>
            <clipPath id="clip1_1208_64">
            <rect width="260" height="208" fill="currentColor" transform="translate(380 16)"/>
            </clipPath>
        </defs>
    </symbol>
    <symbol id="icon-import-waste" viewBox="0 0 640 512">
        <g clip-path="url(#clip0_1208_97)">
            <path d="M624 447.988H16C7.2 447.988 0 455.188 0 463.988V495.988C0 504.788 7.2 511.988 16 511.988H624C632.8 511.988 640 504.788 640 495.988V463.988C640 455.188 632.8 447.988 624 447.988ZM44.8 205.688L133.5 285.688C140.793 292.256 149.528 297.018 159 299.588L446.6 377.988C473.1 385.188 501.2 386.688 527.6 379.388C557.3 371.088 571 358.188 574.9 343.688C578.7 329.188 573.2 310.988 551.5 288.688C532.2 268.888 507.1 255.888 480.7 248.688L383.2 222.088L282.8 30.188C281.3 24.388 276.8 19.788 271.1 18.288L206.1 0.587989C195.5 -2.31201 185.2 5.88799 185.4 16.988L233.3 181.188L131.1 153.388L103.5 85.488C101.6 80.588 97.5 76.888 92.5 75.588L52.7 64.788C42.4 61.988 32.2 69.788 32 80.688L32.2 182.488C32.4 191.388 38.2 199.788 44.8 205.788V205.688Z" fill="currentColor"/>
            <path d="M632.833 73.1429C637.492 73.1429 640.896 68.7679 639.776 64.2589L629.026 21.4018C628.22 18.2321 625.353 16 622.083 16H577.784L589.251 73.1429H632.833ZM503.833 16H458.818L447.351 73.1429H503.833V16ZM563.182 16H518.167V73.1429H574.649L563.182 16ZM389.167 73.1429H432.749L444.216 16H399.917C396.647 16 393.78 18.2321 392.974 21.4018L382.224 64.2589C381.104 68.7679 384.508 73.1429 389.167 73.1429ZM632.833 101.714H623.875L625.667 87.4286H396.333L398.125 101.714H389.167C385.225 101.714 382 104.929 382 108.857V123.143C382 127.071 385.225 130.286 389.167 130.286H401.708L410.667 201.714V208.857C410.667 212.786 413.892 216 417.833 216H432.167C436.108 216 439.333 212.786 439.333 208.857V201.714H582.667V208.857C582.667 212.786 585.892 216 589.833 216H604.167C608.108 216 611.333 212.786 611.333 208.857V201.714L620.292 130.286H632.833C636.775 130.286 640 127.071 640 123.143V108.857C640 104.929 636.775 101.714 632.833 101.714Z" fill="currentColor"/>
        </g>
        <defs>
            <clipPath id="clip0_1208_97">
            <rect width="640" height="512" fill="currentColor"/>
            </clipPath>
        </defs>
    </symbol>
</svg>