<svg width="640" height="480" viewBox="0 0 640 480" fill="currentColor" xmlns="http://www.w3.org/2000/svg">
<g clip-path="url(#clip0_1208_62)">
<path d="M624 416H16.0005C7.20047 416 0.000475067 423.2 0.000475067 432V464C0.000475067 472.8 7.20047 480 16.0005 480H624C632.8 480 640 472.8 640 464V432C640 423.2 632.8 416 624 416ZM80.6005 309.3C86.9005 316.1 95.7005 320 104.9 320L235.4 319.8C245.687 319.787 255.827 317.355 265 312.7L556 165C582.7 151.4 606.7 132.1 623 106.7C641.3 78.2 643.3 57.6 636.1 43C628.9 28.4 611.4 17.7 577.8 15.5C547.9 13.6 518.3 21.4 491.5 35L393 85L174.3 2.90001C171.67 1.13026 168.615 0.0951877 165.45 -0.098198C162.286 -0.291584 159.127 0.363731 156.3 1.8L90.6005 35.3C79.9005 40.7 77.3005 55 85.4005 63.8L241.6 161.9L138.4 214.3L66.0005 177.8C63.5056 176.535 60.7477 175.876 57.9505 175.876C55.1532 175.876 52.3953 176.535 49.9005 177.8L9.90047 198.2C-0.499525 203.5 -3.29952 217.3 4.30048 226.3L80.5005 309.3H80.6005Z" fill="currentColor"/>
<g clip-path="url(#clip1_1208_62)">
<path d="M552.94 352C546.075 352 539.615 348.379 536.121 342.585L510 299.695L483.918 342.585C480.384 348.419 473.925 352.04 467.059 352.04C465.231 352.04 463.403 351.799 461.656 351.276L406 335.504V407.121C406 413.036 410.062 418.186 415.831 419.594L503.662 441.361C507.806 442.366 512.153 442.366 516.256 441.361L604.168 419.594C609.937 418.145 614 412.995 614 407.121V335.504L558.343 351.236C556.596 351.759 554.768 352 552.94 352ZM639.309 306.857L618.387 265.496C617.128 263.002 614.406 261.553 611.603 261.915L510 274.75L547.253 335.946C548.796 338.481 551.884 339.688 554.768 338.884L635.165 316.151C639.187 314.984 641.137 310.559 639.309 306.857ZM401.612 265.496L380.69 306.857C378.821 310.559 380.812 314.984 384.793 316.111L465.19 338.843C468.075 339.648 471.162 338.441 472.706 335.906L510 274.75L408.356 261.915C405.553 261.593 402.871 263.002 401.612 265.496Z" fill="currentColor"/>
</g>
</g>
<defs>
<clipPath id="clip0_1208_62">
<rect width="640" height="480" fill="currentColor"/>
</clipPath>
<clipPath id="clip1_1208_62">
<rect width="260" height="206" fill="currentColor" transform="translate(380 249)"/>
</clipPath>
</defs>
</svg>
