<svg width="641" height="481" viewBox="0 0 641 481" fill="none" xmlns="http://www.w3.org/2000/svg">
<path d="M624.013 416.131H16.0132C7.21317 416.131 0.0131704 423.331 0.0131704 432.131V464.131C0.0131704 472.931 7.21317 480.131 16.0132 480.131H624.013C632.813 480.131 640.013 472.931 640.013 464.131V432.131C640.013 423.331 632.813 416.131 624.013 416.131ZM80.6132 309.431C86.9132 316.231 95.7132 320.131 104.913 320.131L235.413 319.931C245.7 319.918 255.84 317.486 265.013 312.831L556.013 165.131C582.713 151.531 606.713 132.231 623.013 106.831C641.313 78.3313 643.313 57.7314 636.113 43.1314C628.913 28.5314 611.413 17.8314 577.813 15.6314C547.913 13.7314 518.313 21.5314 491.513 35.1314L393.013 85.1313L174.313 3.03135C171.683 1.26161 168.627 0.226535 165.463 0.0331496C162.298 -0.160236 159.14 0.495079 156.313 1.93135L90.6132 35.4314C79.9132 40.8314 77.3132 55.1314 85.4132 63.9314L241.613 162.031L138.413 214.431L66.0132 177.931C63.5183 176.666 60.7604 176.007 57.9632 176.007C55.1659 176.007 52.408 176.666 49.9132 177.931L9.91317 198.331C-0.48683 203.631 -3.28683 217.431 4.31317 226.431L80.5132 309.431H80.6132Z" fill="black"/>
<path d="M624.013 416.131H16.0132C7.21317 416.131 0.0131704 423.331 0.0131704 432.131V464.131C0.0131704 472.931 7.21317 480.131 16.0132 480.131H624.013C632.813 480.131 640.013 472.931 640.013 464.131V432.131C640.013 423.331 632.813 416.131 624.013 416.131ZM80.6132 309.431C86.9132 316.231 95.7132 320.131 104.913 320.131L235.413 319.931C245.7 319.918 255.84 317.486 265.013 312.831L556.013 165.131C582.713 151.531 606.713 132.231 623.013 106.831C641.313 78.3313 643.313 57.7314 636.113 43.1314C628.913 28.5314 611.413 17.8314 577.813 15.6314C547.913 13.7314 518.313 21.5314 491.513 35.1314L393.013 85.1313L174.313 3.03135C171.683 1.26161 168.627 0.226535 165.463 0.0331496C162.298 -0.160236 159.14 0.495079 156.313 1.93135L90.6132 35.4314C79.9132 40.8314 77.3132 55.1314 85.4132 63.9314L241.613 162.031L138.413 214.431L66.0132 177.931C63.5183 176.666 60.7604 176.007 57.9632 176.007C55.1659 176.007 52.408 176.666 49.9132 177.931L9.91317 198.331C-0.48683 203.631 -3.28683 217.431 4.31317 226.431L80.5132 309.431H80.6132Z" fill="black"/>
<path d="M496.896 237.388L403.034 272.732C394.596 275.904 389 284.061 389 293.123V395.124C389 403.371 393.648 410.893 400.958 414.563L494.82 461.689C500.912 464.77 508.088 464.77 514.18 461.689L608.042 414.563C615.397 410.893 620 403.325 620 395.124V293.123C620 284.061 614.404 275.949 605.966 272.778L512.104 237.433C507.23 235.53 501.815 235.53 496.896 237.388ZM504.523 265.527L591.164 298.153V298.651L504.523 333.996L417.881 298.651V298.153L504.523 265.527ZM518.963 426.843V359.371L591.164 329.918V390.592L518.963 426.843Z" fill="black"/>
</svg>
