<svg width="641" height="481" viewBox="0 0 641 481" fill="currentColor" xmlns="http://www.w3.org/2000/svg">
<path d="M624.013 416.131H16.0132C7.21317 416.131 0.0131704 423.331 0.0131704 432.131V464.131C0.0131704 472.931 7.21317 480.131 16.0132 480.131H624.013C632.813 480.131 640.013 472.931 640.013 464.131V432.131C640.013 423.331 632.813 416.131 624.013 416.131ZM80.6132 309.431C86.9132 316.231 95.7132 320.131 104.913 320.131L235.413 319.931C245.7 319.918 255.84 317.486 265.013 312.831L556.013 165.131C582.713 151.531 606.713 132.231 623.013 106.831C641.313 78.3313 643.313 57.7314 636.113 43.1314C628.913 28.5314 611.413 17.8314 577.813 15.6314C547.913 13.7314 518.313 21.5314 491.513 35.1314L393.013 85.1313L174.313 3.03135C171.683 1.26161 168.627 0.226535 165.463 0.0331496C162.298 -0.160236 159.14 0.495079 156.313 1.93135L90.6132 35.4314C79.9132 40.8314 77.3132 55.1314 85.4132 63.9314L241.613 162.031L138.413 214.431L66.0132 177.931C63.5183 176.666 60.7604 176.007 57.9632 176.007C55.1659 176.007 52.408 176.666 49.9132 177.931L9.91317 198.331C-0.48683 203.631 -3.28683 217.431 4.31317 226.431L80.5132 309.431H80.6132Z" fill="currentColor"/>
<path d="M633.583 291.143C637.754 291.143 640.802 287.227 639.799 283.192L630.174 244.835C629.453 241.998 626.886 240 623.958 240H584.295L594.562 291.143H633.583ZM518.083 240H477.779L467.512 291.143H518.083V240ZM571.221 240H530.917V291.143H581.488L571.221 240ZM415.417 291.143H454.438L464.705 240H425.042C422.114 240 419.547 241.998 418.826 244.835L409.201 283.192C408.198 287.227 411.246 291.143 415.417 291.143ZM633.583 316.714H625.562L627.167 303.929H421.833L423.437 316.714H415.417C411.887 316.714 409 319.591 409 323.107V335.893C409 339.409 411.887 342.286 415.417 342.286H426.646L434.667 406.214V412.607C434.667 416.123 437.554 419 441.083 419H453.917C457.446 419 460.333 416.123 460.333 412.607V406.214H588.667V412.607C588.667 416.123 591.554 419 595.083 419H607.917C611.446 419 614.333 416.123 614.333 412.607V406.214L622.354 342.286H633.583C637.112 342.286 640 339.409 640 335.893V323.107C640 319.591 637.112 316.714 633.583 316.714Z" fill="currentColor"/>
</svg>
