<svg width="384" height="512" viewBox="0 0 384 512" fill="none" xmlns="http://www.w3.org/2000/svg">
<path fill-rule="evenodd" clip-rule="evenodd" d="M224 0V136C224 149.2 234.8 160 248 160H384V488C384 501.3 373.3 512 360 512H24C10.7 512 0 501.3 0 488V24C0 10.7 10.7 0 24 0H224ZM384 128V121.9C384 115.6 381.5 109.5 377 105L279.1 7C274.6 2.5 268.5 0 262.1 0H256V128H384ZM221.144 308.911C225.041 315.436 232.245 319.514 239.902 319.514C241.941 319.514 243.98 319.242 245.929 318.653L308.003 300.936V381.591C308.003 388.206 303.472 394.006 297.038 395.637L198.988 420.15C194.411 421.283 189.563 421.283 184.942 420.15L86.9823 395.637C80.5483 394.051 76.0173 388.251 76.0173 381.591V300.936L138.092 318.698C140.04 319.287 142.079 319.559 144.118 319.559C151.775 319.559 158.979 315.481 162.921 308.911L192.01 260.609L221.144 308.911ZM312.896 222.095L336.231 268.675C338.27 272.843 336.095 277.828 331.609 279.142L241.941 304.743C238.724 305.649 235.281 304.289 233.559 301.435L192.01 232.516L305.329 218.062C308.456 217.654 311.492 219.285 312.896 222.095ZM192.01 232.516L78.6453 218.062C75.5189 217.7 72.5285 219.285 71.1239 222.095L47.7894 268.675C45.7052 272.843 47.9254 277.828 52.3657 279.096L142.034 304.697C145.25 305.603 148.694 304.244 150.416 301.39L192.01 232.516Z" fill="black"/>
</svg>
