<svg width="384" height="512" viewBox="0 0 384 512" fill="none" xmlns="http://www.w3.org/2000/svg">
<path fill-rule="evenodd" clip-rule="evenodd" d="M224 0V136C224 149.2 234.8 160 248 160H384V488C384 501.3 373.3 512 360 512H24C10.7 512 0 501.3 0 488V24C0 10.7 10.7 0 24 0H224ZM384 128V121.9C384 115.6 381.5 109.5 377 105L279.1 7C274.6 2.5 268.5 0 262.1 0H256V128H384ZM79.553 229.438L183.573 190.528C189.024 188.482 195.026 188.482 200.427 190.578L304.447 229.488C313.799 232.979 320 241.909 320 251.886V364.176C320 373.205 314.899 381.535 306.747 385.576L202.727 437.456C195.976 440.848 188.024 440.848 181.273 437.456L77.2526 385.576C69.151 381.535 64 373.255 64 364.176V251.886C64 241.909 70.2012 232.93 79.553 229.438ZM288.044 257.423L192.025 221.506L96.0063 257.423V257.972L192.025 296.881L288.044 257.972V257.423ZM208.028 324.817V399.095L288.044 359.187V292.392L208.028 324.817Z" fill="black"/>
</svg>
