<svg width="384" height="512" viewBox="0 0 384 512" fill="none" xmlns="http://www.w3.org/2000/svg">
<path fill-rule="evenodd" clip-rule="evenodd" d="M224 0V136C224 149.2 234.8 160 248 160H384V488C384 501.3 373.3 512 360 512H24C10.7 512 0 501.3 0 488V24C0 10.7 10.7 0 24 0H224ZM384 128V121.9C384 115.6 381.5 109.5 377 105L279.1 7C274.6 2.5 268.5 0 262.1 0H256V128H384ZM264.016 292.096L315.523 311.406C323.041 314.233 328 321.381 328 329.382V388.112C328 395.367 323.894 402.035 317.389 405.289L264.069 431.96C258.684 434.68 252.285 434.68 246.9 431.96L191.5 404.222L136.1 431.96C130.715 434.68 124.316 434.68 118.931 431.96L65.6107 405.289C59.1057 402.035 55 395.367 55 388.112V329.382C55 321.381 59.9588 314.233 67.4236 311.406L118.931 292.096V234.22C118.931 226.219 123.89 219.071 131.408 216.244L184.728 196.24C189.101 194.587 193.899 194.587 198.218 196.24L251.539 216.244C259.057 219.071 264.016 226.219 264.016 234.22V292.096ZM200.564 309.539L245.887 292.523V253.423L200.564 273.16V309.539ZM191.5 213.096L137.113 233.473V233.793L191.5 255.877L245.887 233.793V233.473L191.5 213.096ZM136.58 411.423L181.902 388.752V348.532L136.58 369.229V411.423ZM127.516 351.093L181.902 329.009V328.689L127.516 308.312L73.1289 328.689V329.009L127.516 351.093ZM264.549 411.423L309.871 388.752V348.532L264.549 369.229V411.423ZM255.484 351.093L309.871 329.009V328.689L255.484 308.312L201.098 328.689V329.009L255.484 351.093Z" fill="black"/>
</svg>
