<svg width="384" height="512" viewBox="0 0 384 512" fill="none" xmlns="http://www.w3.org/2000/svg">
<path fill-rule="evenodd" clip-rule="evenodd" d="M224 0V136C224 149.2 234.801 160 248 160H384V488C384 501.3 373.301 512 360 512H24C10.6992 512 0 501.3 0 488V24C0 10.7 10.6992 0 24 0H224ZM384 128V121.9C384 115.6 381.5 109.5 377 105L279.1 7C274.6 2.5 268.5 0 262.1 0H256V128H384ZM74.0234 259.168V266.528C74.0234 272.646 78.9551 277.568 85.084 277.568H250.988V299.647C250.988 309.537 262.971 314.367 269.883 307.421L306.752 270.622C311.082 266.344 311.082 259.353 306.752 255.029L269.883 218.23C262.924 211.33 250.988 216.206 250.988 226.05V248.129H85.084C78.9551 248.129 74.0234 253.051 74.0234 259.168ZM133.012 336.446H298.916C305.047 336.446 309.977 341.368 309.977 347.486V354.846C309.977 360.964 305.047 365.885 298.916 365.885H133.012V387.965C133.012 397.809 121.076 402.684 114.117 395.739L77.248 358.94C72.918 354.662 72.918 347.67 77.248 343.346L114.117 306.547C121.076 299.601 133.012 304.569 133.012 314.367V336.446Z" fill="black"/>
</svg>
