<svg width="384" height="512" viewBox="0 0 384 512" fill="none" xmlns="http://www.w3.org/2000/svg">
<path fill-rule="evenodd" clip-rule="evenodd" d="M224 0V136C224 149.2 234.8 160 248 160H384V488C384 501.3 373.3 512 360 512H24C10.7 512 0 501.3 0 488V24C0 10.7 10.7 0 24 0H224ZM384 128V121.9C384 115.6 381.5 109.5 377 105L279.1 7C274.6 2.5 268.5 0 262.1 0H256V128H384ZM326.766 260.672C327.938 265.406 324.375 270 319.5 270H273.891L261.891 210H308.25C311.672 210 314.672 212.344 315.516 215.672L326.766 260.672ZM137.391 210H184.5V270H125.391L137.391 210ZM199.5 210H246.609L258.609 270H199.5V210ZM110.109 270H64.5C59.625 270 56.0625 265.406 57.2344 260.672L68.4844 215.672C69.3281 212.344 72.3281 210 75.75 210H122.109L110.109 270ZM310.125 300H319.5C323.625 300 327 303.375 327 307.5V322.5C327 326.625 323.625 330 319.5 330H306.375L297 405V412.5C297 416.625 293.625 420 289.5 420H274.5C270.375 420 267 416.625 267 412.5V405H117V412.5C117 416.625 113.625 420 109.5 420H94.5C90.375 420 87 416.625 87 412.5V405L77.625 330H64.5C60.375 330 57 326.625 57 322.5V307.5C57 303.375 60.375 300 64.5 300H73.875L72 285H312L310.125 300Z" fill="black"/>
</svg>
