<svg width="384" height="512" viewBox="0 0 384 512" fill="none" xmlns="http://www.w3.org/2000/svg">
<path fill-rule="evenodd" clip-rule="evenodd" d="M224 0V136C224 149.2 234.8 160 248 160H384V488C384 501.3 373.3 512 360 512H24C10.7 512 0 501.3 0 488V24C0 10.7 10.7 0 24 0H224ZM384 128V121.9C384 115.6 381.5 109.5 377 105L279.1 7C274.6 2.5 268.5 0 262.1 0H256V128H384ZM276.5 321.688H311.917C315.812 321.688 319 324.88 319 328.781V413.906C319 417.808 315.812 421 311.917 421H212.75C208.854 421 205.667 417.808 205.667 413.906V328.781C205.667 324.88 208.854 321.688 212.75 321.688H248.167V364.25L262.333 354.806L276.5 364.25V321.688ZM248.167 286.219C248.167 290.12 244.979 293.312 241.083 293.312H141.917C138.021 293.312 134.833 290.12 134.833 286.219V201.094C134.833 197.192 138.021 194 141.917 194H177.333V236.562L191.5 227.119L205.667 236.562V194H241.083C244.979 194 248.167 197.192 248.167 201.094V286.219ZM134.833 321.688H170.25C174.146 321.688 177.333 324.88 177.333 328.781V413.906C177.333 417.808 174.146 421 170.25 421H71.0833C67.1875 421 64 417.808 64 413.906V328.781C64 324.88 67.1875 321.688 71.0833 321.688H106.5V364.25L120.667 354.806L134.833 364.25V321.688Z" fill="black"/>
</svg>
