<svg width="384" height="512" viewBox="0 0 384 512" fill="none" xmlns="http://www.w3.org/2000/svg">
<g clip-path="url(#clip0_1279_64)">
<path fill-rule="evenodd" clip-rule="evenodd" d="M224 0V136C224 149.2 234.8 160 248 160H384V488C384 501.3 373.3 512 360 512H24C10.7 512 0 501.3 0 488V24C0 10.7 10.7 0 24 0H224ZM384 128V121.9C384 115.6 381.5 109.5 377 105L279.1 7C274.6 2.5 268.5 0 262.1 0H256V128H384ZM165.167 312.804C165.207 313.43 165.2 314.059 165.2 314.812C165.2 332.941 141.653 347.625 112.6 347.625C83.5466 347.625 59.9999 332.941 59.9999 314.812C59.9999 314.074 59.9885 313.466 60.0224 312.861C60.2838 308.187 63.2403 303.663 94.9296 240.369C102.203 225.85 122.955 225.891 130.229 240.369C161.706 303.204 164.857 307.914 165.167 312.804ZM142.187 308.25L112.6 249.188L83.0124 308.25H142.187ZM322.967 312.804C323.007 313.43 323 314.059 323 314.812C323 332.941 299.453 347.625 270.4 347.625C241.347 347.625 217.8 332.941 217.8 314.812C217.8 314.074 217.789 313.466 217.822 312.861C218.084 308.187 221.04 303.663 252.73 240.369C260.003 225.85 280.756 225.891 288.029 240.369C319.506 303.204 322.657 307.914 322.967 312.804ZM270.4 249.188L240.812 308.25H299.987L270.4 249.188ZM204.65 360.75H276.975C280.591 360.75 283.55 363.703 283.55 367.312V380.438C283.55 384.047 280.591 387 276.975 387H106.025C102.409 387 99.4499 384.047 99.4499 380.438V367.312C99.4499 363.703 102.409 360.75 106.025 360.75H178.35V239.877C168.693 235.652 161.419 226.957 159.282 216.375H106.025C102.409 216.375 99.4499 213.422 99.4499 209.812V196.688C99.4499 193.078 102.409 190.125 106.025 190.125H165.364C171.364 182.209 180.774 177 191.5 177C202.225 177 211.636 182.209 217.635 190.125H276.975C280.591 190.125 283.55 193.078 283.55 196.688V209.812C283.55 213.422 280.591 216.375 276.975 216.375H223.717C221.58 226.957 214.307 235.652 204.65 239.877V360.75Z" fill="black"/>
</g>
<defs>
<clipPath id="clip0_1279_64">
<rect width="384" height="512" fill="white"/>
</clipPath>
</defs>
</svg>
