<svg width="640" height="512" viewBox="0 0 640 512" fill="currentColor" xmlns="http://www.w3.org/2000/svg">
<g clip-path="url(#clip0_1208_97)">
<path d="M624 447.988H16C7.2 447.988 0 455.188 0 463.988V495.988C0 504.788 7.2 511.988 16 511.988H624C632.8 511.988 640 504.788 640 495.988V463.988C640 455.188 632.8 447.988 624 447.988ZM44.8 205.688L133.5 285.688C140.793 292.256 149.528 297.018 159 299.588L446.6 377.988C473.1 385.188 501.2 386.688 527.6 379.388C557.3 371.088 571 358.188 574.9 343.688C578.7 329.188 573.2 310.988 551.5 288.688C532.2 268.888 507.1 255.888 480.7 248.688L383.2 222.088L282.8 30.188C281.3 24.388 276.8 19.788 271.1 18.288L206.1 0.587989C195.5 -2.31201 185.2 5.88799 185.4 16.988L233.3 181.188L131.1 153.388L103.5 85.488C101.6 80.588 97.5 76.888 92.5 75.588L52.7 64.788C42.4 61.988 32.2 69.788 32 80.688L32.2 182.488C32.4 191.388 38.2 199.788 44.8 205.788V205.688Z" fill="currentColor"/>
<path d="M632.833 73.1429C637.492 73.1429 640.896 68.7679 639.776 64.2589L629.026 21.4018C628.22 18.2321 625.353 16 622.083 16H577.784L589.251 73.1429H632.833ZM503.833 16H458.818L447.351 73.1429H503.833V16ZM563.182 16H518.167V73.1429H574.649L563.182 16ZM389.167 73.1429H432.749L444.216 16H399.917C396.647 16 393.78 18.2321 392.974 21.4018L382.224 64.2589C381.104 68.7679 384.508 73.1429 389.167 73.1429ZM632.833 101.714H623.875L625.667 87.4286H396.333L398.125 101.714H389.167C385.225 101.714 382 104.929 382 108.857V123.143C382 127.071 385.225 130.286 389.167 130.286H401.708L410.667 201.714V208.857C410.667 212.786 413.892 216 417.833 216H432.167C436.108 216 439.333 212.786 439.333 208.857V201.714H582.667V208.857C582.667 212.786 585.892 216 589.833 216H604.167C608.108 216 611.333 212.786 611.333 208.857V201.714L620.292 130.286H632.833C636.775 130.286 640 127.071 640 123.143V108.857C640 104.929 636.775 101.714 632.833 101.714Z" fill="currentColor"/>
</g>
<defs>
<clipPath id="clip0_1208_97">
<rect width="640" height="512" fill="currentColor"/>
</clipPath>
</defs>
</svg>
