<svg width="640" height="512" viewBox="0 0 640 512" fill="currentColor" xmlns="http://www.w3.org/2000/svg">
<g clip-path="url(#clip0_1208_64)">
<path d="M624 447.988H16C7.2 447.988 0 455.188 0 463.988V495.988C0 504.788 7.2 511.988 16 511.988H624C632.8 511.988 640 504.788 640 495.988V463.988C640 455.188 632.8 447.988 624 447.988ZM44.8 205.688L133.5 285.688C140.793 292.256 149.528 297.018 159 299.588L446.6 377.988C473.1 385.188 501.2 386.688 527.6 379.388C557.3 371.088 571 358.188 574.9 343.688C578.7 329.188 573.2 310.988 551.5 288.688C532.2 268.888 507.1 255.888 480.7 248.688L383.2 222.088L282.8 30.188C281.3 24.388 276.8 19.788 271.1 18.288L206.1 0.587989C195.5 -2.31201 185.2 5.88799 185.4 16.988L233.3 181.188L131.1 153.388L103.5 85.488C101.6 80.588 97.5 76.888 92.5 75.588L52.7 64.788C42.4 61.988 32.2 69.788 32 80.688L32.2 182.488C32.4 191.388 38.2 199.788 44.8 205.788V205.688Z" fill="currentColor"/>
<g clip-path="url(#clip1_1208_64)">
<path d="M552.94 120C546.075 120 539.615 116.344 536.121 110.494L510 67.1875L483.918 110.494C480.384 116.384 473.925 120.041 467.059 120.041C465.231 120.041 463.403 119.797 461.656 119.269L406 103.344V175.656C406 181.628 410.062 186.828 415.831 188.25L503.662 210.228C507.806 211.244 512.153 211.244 516.256 210.228L604.168 188.25C609.937 186.787 614 181.587 614 175.656V103.344L558.343 119.228C556.596 119.756 554.768 120 552.94 120ZM639.309 74.4188L618.387 32.6563C617.128 30.1375 614.406 28.675 611.603 29.0406L510 42L547.253 103.791C548.796 106.35 551.884 107.569 554.768 106.756L635.165 83.8031C639.187 82.625 641.137 78.1562 639.309 74.4188ZM401.612 32.6563L380.69 74.4188C378.821 78.1562 380.812 82.625 384.793 83.7625L465.19 106.716C468.075 107.528 471.162 106.309 472.706 103.75L510 42L408.356 29.0406C405.553 28.7156 402.871 30.1375 401.612 32.6563Z" fill="currentColor"/>
</g>
</g>
<defs>
<clipPath id="clip0_1208_64">
<rect width="640" height="512" fill="currentColor"/>
</clipPath>
<clipPath id="clip1_1208_64">
<rect width="260" height="208" fill="currentColor" transform="translate(380 16)"/>
</clipPath>
</defs>
</svg>
