<svg width="640" height="512" viewBox="0 0 640 512" fill="currentColor" xmlns="http://www.w3.org/2000/svg">
<g clip-path="url(#clip0_1208_88)">
<path d="M624 447.988H16C7.2 447.988 0 455.188 0 463.988V495.988C0 504.788 7.2 511.988 16 511.988H624C632.8 511.988 640 504.788 640 495.988V463.988C640 455.188 632.8 447.988 624 447.988ZM44.8 205.688L133.5 285.688C140.793 292.256 149.528 297.018 159 299.588L446.6 377.988C473.1 385.188 501.2 386.688 527.6 379.388C557.3 371.088 571 358.188 574.9 343.688C578.7 329.188 573.2 310.988 551.5 288.688C532.2 268.888 507.1 255.888 480.7 248.688L383.2 222.088L282.8 30.188C281.3 24.388 276.8 19.788 271.1 18.288L206.1 0.587989C195.5 -2.31201 185.2 5.88799 185.4 16.988L233.3 181.188L131.1 153.388L103.5 85.488C101.6 80.588 97.5 76.888 92.5 75.588L52.7 64.788C42.4 61.988 32.2 69.788 32 80.688L32.2 182.488C32.4 191.388 38.2 199.788 44.8 205.788V205.688Z" fill="currentColor"/>
<path d="M505.495 21.3695L412.852 56.2489C404.523 59.3791 399 67.4282 399 76.3716V177.03C399 185.168 403.588 192.591 410.803 196.214L503.446 242.719C509.459 245.76 516.541 245.76 522.554 242.719L615.197 196.214C622.457 192.591 627 185.124 627 177.03V76.3716C627 67.4282 621.477 59.4238 613.148 56.2936L520.505 21.4142C515.695 19.5361 510.35 19.5361 505.495 21.3695ZM513.022 49.1389L598.539 81.3352V81.8271L513.022 116.706L427.506 81.8271V81.3352L513.022 49.1389ZM527.275 208.332V141.748L598.539 112.682V172.558L527.275 208.332Z" fill="currentColor"/>
</g>
<defs>
<clipPath id="clip0_1208_88">
<rect width="640" height="512" fill="currentColor"/>
</clipPath>
</defs>
</svg>
