<svg width="383" height="342" viewBox="0 0 383 342" fill="none" xmlns="http://www.w3.org/2000/svg">
<g clip-path="url(#clip0_1230_97)">
<path d="M375.885 219.879C368.039 212.773 355.804 213.238 347.559 219.879L286.12 268.953C278.606 274.996 269.23 278.25 259.522 278.25H180.861C175.01 278.25 170.222 273.469 170.222 267.625C170.222 261.781 175.01 257 180.861 257H232.925C243.498 257 253.339 249.762 255.067 239.336C257.262 226.055 247.022 214.5 234.056 214.5H127.667C109.714 214.5 92.3589 220.676 78.3953 231.965L47.476 257H10.6389C4.7875 257 0 261.781 0 267.625V331.375C0 337.219 4.7875 342 10.6389 342H247.886C257.528 342 266.903 338.746 274.483 332.703L375.021 252.352C385.128 244.316 385.926 228.91 375.885 219.879Z" fill="black"/>
<path d="M231.639 115.012C225.223 115.012 219.186 111.597 215.921 106.133L191.508 65.6827L167.134 106.133C163.831 111.635 157.794 115.05 151.378 115.05C149.669 115.05 147.961 114.822 146.328 114.329L94.3145 99.4541V166.997C94.3145 172.575 98.1112 177.432 103.502 178.76L185.586 199.289C189.458 200.237 193.521 200.237 197.355 199.289L279.514 178.76C284.906 177.394 288.702 172.537 288.702 166.997V99.4541L236.688 114.291C235.056 114.784 233.347 115.012 231.639 115.012ZM312.355 72.437L292.803 33.4291C291.626 31.0765 289.082 29.7105 286.462 30.052L191.508 42.1566L226.324 99.8715C227.766 102.262 230.652 103.4 233.347 102.642L308.483 81.2024C312.241 80.102 314.064 75.928 312.355 72.437ZM90.2142 33.4291L70.6615 72.437C68.915 75.928 70.7754 80.102 74.4961 81.1644L149.632 102.604C152.327 103.363 155.213 102.224 156.655 99.8336L191.508 42.1566L96.5166 30.052C93.8969 29.7484 91.3911 31.0765 90.2142 33.4291Z" fill="black"/>
</g>
<defs>
<clipPath id="clip0_1230_97">
<rect width="383" height="342" fill="white"/>
</clipPath>
</defs>
</svg>
